<svg xmlns="http://www.w3.org/2000/svg" width="19.25" height="16.84" viewBox="0 0 19.25 16.84"><title>Asset 14</title><g id="Layer_2" data-name="Layer 2"><g id="Layer_1-2" data-name="Layer 1"><path d="M.69,3.09a.68.68,0,0,1-.5-.19A.66.66,0,0,1,0,2.41V.69A.68.68,0,0,1,.19.19.68.68,0,0,1,.69,0H18.56a.68.68,0,0,1,.5.19.68.68,0,0,1,.19.5V2.41a.66.66,0,0,1-.19.49.68.68,0,0,1-.5.19ZM.69,10a.72.72,0,0,1-.5-.19A.68.68,0,0,1,0,9.28V7.56a.66.66,0,0,1,.19-.49.68.68,0,0,1,.5-.19H18.56a.68.68,0,0,1,.5.19.66.66,0,0,1,.19.49V9.28a.68.68,0,0,1-.19.5.72.72,0,0,1-.5.19Zm0,6.87a.68.68,0,0,1-.5-.19A.66.66,0,0,1,0,16.16V14.44a.68.68,0,0,1,.19-.5.68.68,0,0,1,.5-.19H18.56a.65.65,0,0,1,.69.69v1.72a.66.66,0,0,1-.19.49.68.68,0,0,1-.5.19Z"/></g></g></svg>