<svg xmlns="http://www.w3.org/2000/svg" width="358.23" height="89.99"><g data-name="Layer 2"><g data-name="Layer 1"><path d="M102.39 2.17a11.72 11.72 0 0 1 6 6.23 15.66 15.66 0 0 1 .22 9.63 22.32 22.32 0 0 1-5 9.59 23.73 23.73 0 0 1-9 6.26 32 32 0 0 1-12 2.17H71.1l-3.62 14.62h-9.41L70.6 0h20.85a24.39 24.39 0 0 1 10.94 2.17zm-8.34 23.31a12.22 12.22 0 0 0 5-7.45c.8-3.24.35-5.72-1.34-7.46S93.15 8 89 8H78l-5 20.13h11q6.22-.04 10.05-2.65zm44.06-13.9L136 20.2a10.15 10.15 0 0 0-2-.22 13.7 13.7 0 0 0-9 3.08 16 16 0 0 0-5.16 8.86l-4.64 18.75h-9L115.64 12h8.61l-1.39 5.64q5.42-6.05 15.25-6.06zm2.58 37.07a12.9 12.9 0 0 1-5.6-7.06 18.11 18.11 0 0 1-.09-10.25 24.94 24.94 0 0 1 5.17-10.2 26.5 26.5 0 0 1 9.08-7 25.77 25.77 0 0 1 11.2-2.54 18.63 18.63 0 0 1 10 2.54 13 13 0 0 1 5.61 7 17.92 17.92 0 0 1 .12 10.2A25.39 25.39 0 0 1 171 41.59a26.41 26.41 0 0 1-9.1 7.06 25.9 25.9 0 0 1-11.27 2.53 18.47 18.47 0 0 1-9.94-2.53zm20.93-8.55a15.83 15.83 0 0 0 5.43-8.76q1.33-5.41-1.09-8.75c-1.63-2.22-4.1-3.33-7.43-3.33a13.86 13.86 0 0 0-9 3.33 16 16 0 0 0-5.39 8.75c-.89 3.62-.54 6.55 1.06 8.76s4.06 3.34 7.39 3.34a14 14 0 0 0 9.03-3.34zm58.2-24.25q3.35 4.28 1.28 12.67l-5.48 22.15h-9.05l5.19-21c.84-3.38.67-5.92-.5-7.64s-3.22-2.57-6.17-2.57a13.15 13.15 0 0 0-8.63 3 15.63 15.63 0 0 0-5 8.65l-4.84 19.54h-9.05L187.1 12h8.62l-1.24 5a19.89 19.89 0 0 1 6.65-4 23 23 0 0 1 8-1.38q7.33-.04 10.69 4.23zm26.51 32.72a14.31 14.31 0 0 1-4.36 2 19.45 19.45 0 0 1-5 .65q-6.36 0-9-3.33t-1.07-9.7l8.57-34.68h9.05l-2.18 8.84h10.35l-1.79 7.23h-10.35L236 37.93c-.47 1.89-.35 3.32.35 4.31a4.06 4.06 0 0 0 3.58 1.48 9.75 9.75 0 0 0 5.46-1.59zm10.35.08a13 13 0 0 1-5.61-7.06 18.2 18.2 0 0 1-.07-10.25 25.19 25.19 0 0 1 5.17-10.2 26.59 26.59 0 0 1 9.08-7 25.8 25.8 0 0 1 11.2-2.54 18.6 18.6 0 0 1 10 2.54 13 13 0 0 1 5.62 7 17.84 17.84 0 0 1 .11 10.2A25.26 25.26 0 0 1 287 41.59a26.47 26.47 0 0 1-9.09 7.06 26 26 0 0 1-11.27 2.53 18.45 18.45 0 0 1-9.96-2.53zm20.93-8.55a15.82 15.82 0 0 0 5.39-8.76q1.35-5.41-1.09-8.75t-7.43-3.33a13.87 13.87 0 0 0-9 3.33 16 16 0 0 0-5.39 8.75c-.89 3.62-.54 6.55 1.06 8.76s4.06 3.34 7.39 3.34a14 14 0 0 0 9.07-3.34zM62.14.17l-1.48 6H27.45l1.48-6h33.21zm-2.72 11l-1.48 6H4.68l1.48-6h53.26zm-2.72 11l-1.48 6H16.68l1.48-6H56.7zm-2.72 11l-1.48 6H7.18l1.48-6h45.32zm-2.72 11l-1.48 6h-37.1l1.48-6h37.1zm304.55-33l-1.48 6h-50l1.48-6h50zm-10.22 11l-1.48 6h-42.5l1.48-6h42.5zm4.78 11l-1.48 6h-50l1.48-6h50zm-8.97 11l-1.48 6h-43.75l1.48-6h43.75z"/><path fill="#cf2026" d="M12.25 63.17h-8l1.98-8h8l-1.98 8zm6.02 8h-8l1.98-8h8l-1.98 8z"/><path fill="none" d="M10.27 71.17h-8l1.98-8h8l-1.98 8zm9.98-8h-8l1.98-8h8l-1.98 8z"/><path fill="#cf2026" d="M28.25 63.17h-8l1.98-8h8l-1.98 8zm6.02 8h-8l1.98-8h8l-1.98 8z"/><path fill="none" d="M26.27 71.17h-8l1.98-8h8l-1.98 8zm9.98-8h-8l1.98-8h8l-1.98 8z"/><path fill="#cf2026" d="M44.25 63.17h-8l1.98-8h8l-1.98 8zm6.02 8h-8l1.98-8h8l-1.98 8z"/><path fill="none" d="M42.27 71.17h-8l1.98-8h8l-1.98 8zm9.98-8h-8l1.98-8h8l-1.98 8z"/><path fill="#cf2026" d="M60.25 63.17h-8l1.98-8h8l-1.98 8zm6.02 8h-8l1.98-8h8l-1.98 8z"/><path fill="none" d="M58.27 71.17h-8l1.98-8h8l-1.98 8zm9.98-8h-8l1.98-8h8l-1.98 8z"/><path fill="#cf2026" d="M76.25 63.17h-8l1.98-8h8l-1.98 8zm6.02 8h-8l1.98-8h8l-1.98 8z"/><path fill="none" d="M74.27 71.17h-8l1.98-8h8l-1.98 8zm9.98-8h-8l1.98-8h8l-1.98 8z"/><path fill="#cf2026" d="M92.25 63.17h-8l1.98-8h8l-1.98 8zm6.02 8h-8l1.98-8h8l-1.98 8z"/><path fill="none" d="M90.27 71.17h-8l1.98-8h8l-1.98 8zm9.98-8h-8l1.98-8h8l-1.98 8z"/><path fill="#cf2026" d="M108.25 63.17h-8l1.98-8h8l-1.98 8zm6.02 8h-8l1.98-8h8l-1.98 8z"/><path fill="none" d="M106.27 71.17h-8l1.98-8h8l-1.98 8zm9.98-8h-8l1.98-8h8l-1.98 8z"/><path fill="#cf2026" d="M124.25 63.17h-8l1.98-8h8l-1.98 8zm6.02 8h-8l1.98-8h8l-1.98 8z"/><path fill="none" d="M122.27 71.17h-8l1.98-8h8l-1.98 8zm9.98-8h-8l1.98-8h8l-1.98 8z"/><path fill="#cf2026" d="M140.25 63.17h-8l1.98-8h8l-1.98 8z"/><path fill="none" d="M230.22 55.17l-1.98 8h-8l-1.97 8h-88l1.97-8h8l1.98-8h88z"/><path fill="#cf2026" d="M226.27 71.17h-8l1.98-8h8l-1.98 8zm9.98-8h-8l1.98-8h8l-1.98 8zm6.02 8h-8l1.98-8h8l-1.98 8z"/><path fill="none" d="M234.27 71.17h-8l1.98-8h8l-1.98 8zm9.98-8h-8l1.98-8h8l-1.98 8z"/><path fill="#cf2026" d="M252.25 63.17h-8l1.98-8h8l-1.98 8zm6.02 8h-8l1.98-8h8l-1.98 8z"/><path fill="none" d="M250.27 71.17h-8l1.98-8h8l-1.98 8zm9.98-8h-8l1.98-8h8l-1.98 8z"/><path fill="#cf2026" d="M268.25 63.17h-8l1.98-8h8l-1.98 8zm6.02 8h-8l1.98-8h8l-1.98 8z"/><path fill="none" d="M266.27 71.17h-8l1.98-8h8l-1.98 8zm9.98-8h-8l1.98-8h8l-1.98 8z"/><path fill="#cf2026" d="M284.25 63.17h-8l1.98-8h8l-1.98 8zm6.02 8h-8l1.98-8h8l-1.98 8z"/><path fill="none" d="M282.27 71.17h-8l1.98-8h8l-1.98 8zm9.98-8h-8l1.98-8h8l-1.98 8z"/><path fill="#cf2026" d="M300.25 63.17h-8l1.98-8h8l-1.98 8zm6.02 8h-8l1.98-8h8l-1.98 8z"/><path fill="none" d="M298.27 71.17h-8l1.98-8h8l-1.98 8zm9.98-8h-8l1.98-8h8l-1.98 8z"/><path fill="#cf2026" d="M316.25 63.17h-8l1.98-8h8l-1.98 8zm6.02 8h-8l1.98-8h8l-1.98 8z"/><path fill="none" d="M314.27 71.17h-8l1.98-8h8l-1.98 8zm9.98-8h-8l1.98-8h8l-1.98 8z"/><path fill="#cf2026" d="M332.25 63.17h-8l1.98-8h8l-1.98 8zm6.02 8h-8l1.98-8h8l-1.98 8z"/><path fill="none" d="M330.27 71.17h-8l1.98-8h8l-1.98 8zm9.98-8h-8l1.98-8h8l-1.98 8z"/><path fill="#cf2026" d="M348.25 63.17h-8l1.98-8h8l-1.98 8z"/><path fill="none" d="M346.27 71.17h-8l1.98-8h8l-1.98 8zm9.98-8h-8l1.98-8h8l-1.98 8z"/><path d="M161.69 56.52h5.81a7.15 7.15 0 0 1 3.58.83 4.29 4.29 0 0 1 2 2.34 5.92 5.92 0 0 1 .05 3.48 8.32 8.32 0 0 1-1.77 3.49A8.69 8.69 0 0 1 168.2 69a9.73 9.73 0 0 1-4 .82h-5.8zm2.92 11.21a6.49 6.49 0 0 0 2.72-.56 5.69 5.69 0 0 0 2.1-1.59 5.87 5.87 0 0 0 1.19-2.41 4.24 4.24 0 0 0 0-2.4 2.87 2.87 0 0 0-1.31-1.6 4.89 4.89 0 0 0-2.44-.56h-3.23l-2.26 9.12zm19.64.02l-.51 2.07h-10l3.29-13.3h9.71l-.51 2.07H179l-.86 3.46h6.43l-.51 2h-6.42l-.91 3.66zm5.08-11.23h2.47L189 67.73h7l-.52 2.09h-9.42zm11.01 0h2.47l-3.29 13.3h-2.47zM10.74 83.45h.91l-1.2 4.87a7.82 7.82 0 0 1-2.38 1.24 8.58 8.58 0 0 1-2.68.44 5.94 5.94 0 0 1-3.27-.86 4.34 4.34 0 0 1-1.85-2.37 5.93 5.93 0 0 1-.05-3.38A8.36 8.36 0 0 1 1.94 80a9 9 0 0 1 3-2.36 8.37 8.37 0 0 1 3.71-.85 6.32 6.32 0 0 1 2.51.46 4 4 0 0 1 1.73 1.32l-.75.63a3.57 3.57 0 0 0-1.52-1.2 5.91 5.91 0 0 0-2.15-.36 7.19 7.19 0 0 0-3.2.75 7.68 7.68 0 0 0-2.62 2 7.23 7.23 0 0 0-1.48 2.92 5 5 0 0 0 .05 2.91 3.9 3.9 0 0 0 1.6 2.06 5.07 5.07 0 0 0 2.82.75 7 7 0 0 0 4-1.18zm11.86 6.44l-2-4.34a10.38 10.38 0 0 1-1.29.09h-3.74l-1.05 4.25h-.95l3.21-13h4.67A4.72 4.72 0 0 1 25 78.05a3.27 3.27 0 0 1 .6 3.23 5.42 5.42 0 0 1-1.43 2.59 5.69 5.69 0 0 1-2.62 1.47l2.12 4.55zm-3.11-5.08a5.84 5.84 0 0 0 3.4-.92 4.32 4.32 0 0 0 1.74-2.61 2.65 2.65 0 0 0-.45-2.61 3.91 3.91 0 0 0-2.95-.92h-3.71l-1.75 7.06zM35.66 89l-.21.85h-9l3.22-13h8.69l-.21.86h-7.72l-1.27 5.12h6.93l-.21.84H29L27.63 89zM48 86.24h-7.55l-2.55 3.65h-1l9.2-13h1l2.76 13h-1zm-.16-.8l-1.56-7.51L41 85.44zM56 77.75h-4.69l.21-.86h10.31l-.21.86h-4.69l-3 12.14H53zm13.31 0l-1.38 5.55h6.93l-.21.86h-6.93l-1.42 5.73h-1l3.22-13h8.69l-.21.86zm9.5 11.37A4.41 4.41 0 0 1 77 86.76a5.9 5.9 0 0 1 0-3.37A8.2 8.2 0 0 1 78.63 80a9.26 9.26 0 0 1 3-2.37 8.27 8.27 0 0 1 3.67-.86 5.86 5.86 0 0 1 3.24.85A4.41 4.41 0 0 1 90.39 80a5.94 5.94 0 0 1 0 3.38 8.29 8.29 0 0 1-1.72 3.38 8.87 8.87 0 0 1-3 2.36 8.23 8.23 0 0 1-3.66.86 5.76 5.76 0 0 1-3.2-.86zm6.59-.75a7.9 7.9 0 0 0 2.6-2.05 7.2 7.2 0 0 0 1.48-2.93 5.15 5.15 0 0 0 0-2.92 3.82 3.82 0 0 0-1.58-2 4.9 4.9 0 0 0-2.77-.75 6.94 6.94 0 0 0-3.14.75 7.61 7.61 0 0 0-2.6 2 7.38 7.38 0 0 0-1.49 2.92 5.27 5.27 0 0 0 0 2.93 3.81 3.81 0 0 0 1.58 2.05 5 5 0 0 0 2.78.74 6.93 6.93 0 0 0 3.14-.74zm8.74.75a4.44 4.44 0 0 1-1.83-2.36 5.9 5.9 0 0 1-.06-3.37A8.34 8.34 0 0 1 94 80a9.16 9.16 0 0 1 3-2.37 8.27 8.27 0 0 1 3.67-.86 5.88 5.88 0 0 1 3.24.85 4.41 4.41 0 0 1 1.82 2.38 5.94 5.94 0 0 1 0 3.38 8.42 8.42 0 0 1-1.72 3.38 9 9 0 0 1-3 2.36 8.26 8.26 0 0 1-3.66.86 5.82 5.82 0 0 1-3.21-.86zm6.6-.75a7.9 7.9 0 0 0 2.59-2.05 7.33 7.33 0 0 0 1.48-2.93 5.15 5.15 0 0 0 0-2.92 3.76 3.76 0 0 0-1.57-2 4.92 4.92 0 0 0-2.77-.75 7 7 0 0 0-3.15.75 7.67 7.67 0 0 0-2.59 2 7.25 7.25 0 0 0-1.49 2.92 5.18 5.18 0 0 0 0 2.93 3.81 3.81 0 0 0 1.58 2.05 5 5 0 0 0 2.78.74 6.93 6.93 0 0 0 3.14-.74zm9.51-11.48h5.14a6.36 6.36 0 0 1 3.39.84 4.3 4.3 0 0 1 1.87 2.27 5.83 5.83 0 0 1 0 3.35 8.24 8.24 0 0 1-1.7 3.36 8.81 8.81 0 0 1-6.82 3.14H107zM112.31 89a8.07 8.07 0 0 0 3.36-.71 7.31 7.31 0 0 0 4.08-4.94 5.27 5.27 0 0 0 0-2.93 3.61 3.61 0 0 0-1.63-2 5.79 5.79 0 0 0-3-.71H111L108.19 89zm23.41-2.76h-7.54l-2.56 3.65h-1l9.2-13h.94l2.77 13h-1zm-.15-.8L134 77.93l-5.25 7.51zm8.14-7.69H139l.21-.86h10.31l-.21.86h-4.68l-3 12.14h-.95zm20.61 6.54a2.73 2.73 0 0 1 .2 2.17 4.05 4.05 0 0 1-1.84 2.54 7.06 7.06 0 0 1-3.8.89h-5.8l3.22-13h5.42a4.52 4.52 0 0 1 3.08.87 2.28 2.28 0 0 1 .57 2.46 3.78 3.78 0 0 1-1.05 1.87 4.4 4.4 0 0 1-1.85 1.1 2.64 2.64 0 0 1 1.85 1.1zm-2.21 4.13a3.11 3.11 0 0 0 1.48-2 1.8 1.8 0 0 0-.48-2 4.38 4.38 0 0 0-2.7-.65h-4.85l-1.33 5.37h4.85a6 6 0 0 0 3.03-.72zM157 77.71l-1.28 5.18h4.44a5.29 5.29 0 0 0 2.79-.66 3 3 0 0 0 1.4-1.94 1.79 1.79 0 0 0-.44-1.92 3.74 3.74 0 0 0-2.47-.66zm18.68 12.18l-2-4.34a10.25 10.25 0 0 1-1.29.09h-3.71l-1.05 4.25h-.95l3.22-13h4.66a4.76 4.76 0 0 1 3.56 1.16 3.29 3.29 0 0 1 .59 3.23 5.42 5.42 0 0 1-1.43 2.59 5.69 5.69 0 0 1-2.62 1.47l2.12 4.55zm-3.11-5.08a5.84 5.84 0 0 0 3.4-.92 4.34 4.34 0 0 0 1.75-2.61 2.68 2.68 0 0 0-.46-2.61 3.88 3.88 0 0 0-2.94-.92h-3.72l-1.74 7.06zM188.74 89l-.21.85h-9l3.21-13h8.69l-.21.86h-7.74l-1.27 5.12h6.93l-.21.84H182L180.71 89zm12.34-2.76h-7.55L191 89.89h-1l9.19-13h.95l2.77 13h-1zm-.16-.8l-1.56-7.51-5.26 7.51zm9.36-1.95l-3.65 3-.85 3.41h-.94l3.21-13h.95l-2.07 8.36 10.19-8.36h1.15l-7.18 5.91 4.35 7.09h-1.15zm20.97-6.6l-3.22 13h-.78l-6.06-11.29-2.8 11.29h-.94l3.21-13h.8l6 11.3 2.79-11.3zM241.11 89l-.21.85h-9l3.22-13h8.69l-.21.86h-7.74l-1.27 5.12h6.92l-.2.84h-6.91L233.08 89zm4.6.13a4.4 4.4 0 0 1-1.83-2.36 5.94 5.94 0 0 1 0-3.38 8.36 8.36 0 0 1 1.68-3.39 9 9 0 0 1 3-2.36 8.25 8.25 0 0 1 3.66-.85 6.25 6.25 0 0 1 2.49.46 3.77 3.77 0 0 1 1.69 1.34l-.75.61a4.27 4.27 0 0 0-3.65-1.53 7 7 0 0 0-3.15.75 7.55 7.55 0 0 0-2.61 2 7.38 7.38 0 0 0-1.49 2.92 5.27 5.27 0 0 0 0 2.93 3.83 3.83 0 0 0 1.59 2.05 5 5 0 0 0 2.79.74 6.87 6.87 0 0 0 4.38-1.56l.45.62a7.75 7.75 0 0 1-2.37 1.35A8.09 8.09 0 0 1 249 90a5.86 5.86 0 0 1-3.29-.87zm15.87-5.64l-3.66 3-.84 3.41h-.95l3.22-13h.94l-2.06 8.36 10.18-8.36h1.15l-7.18 5.91 4.36 7.09h-1.15zm12.81 6.01a3.73 3.73 0 0 1-1.7-1.28l.6-.7a3.63 3.63 0 0 0 1.55 1.18 5.87 5.87 0 0 0 2.33.45 5.52 5.52 0 0 0 3-.7 3 3 0 0 0 1.41-1.84 1.66 1.66 0 0 0-.16-1.4 2.36 2.36 0 0 0-1-.79 13.6 13.6 0 0 0-1.86-.58 15.32 15.32 0 0 1-2.13-.69 2.54 2.54 0 0 1-1.21-1 2.4 2.4 0 0 1-.14-1.87 4 4 0 0 1 .93-1.73 4.78 4.78 0 0 1 1.84-1.26 7.15 7.15 0 0 1 2.69-.46 6.5 6.5 0 0 1 2 .32 4.62 4.62 0 0 1 1.59.85l-.54.76a4.54 4.54 0 0 0-1.52-.82 6 6 0 0 0-1.78-.27 5.27 5.27 0 0 0-2.91.72 3.08 3.08 0 0 0-1.38 1.85 1.64 1.64 0 0 0 .16 1.39 2.35 2.35 0 0 0 1 .8A16.71 16.71 0 0 0 279 83a16.57 16.57 0 0 1 2.12.69 2.72 2.72 0 0 1 1.21 1 2.3 2.3 0 0 1 .15 1.83 4 4 0 0 1-.94 1.73 4.94 4.94 0 0 1-1.88 1.24A7.33 7.33 0 0 1 277 90a6.77 6.77 0 0 1-2.61-.5zm21.38-11.45a3.29 3.29 0 0 1 .59 3.23 5.26 5.26 0 0 1-2.18 3.2 7.14 7.14 0 0 1-4.18 1.16h-3.71l-1.05 4.25h-.95l3.22-13h4.66a4.76 4.76 0 0 1 3.6 1.16zm-2.11 5.83a4.32 4.32 0 0 0 1.74-2.6 2.7 2.7 0 0 0-.45-2.61 3.92 3.92 0 0 0-2.95-.92h-3.72l-1.74 7h3.72a5.93 5.93 0 0 0 3.4-.87zM306.05 89l-.21.85h-9l3.21-13h8.7l-.22.86h-7.74l-1.27 5.12h6.93l-.21.84h-6.93L298 89zm11.47 0l-.21.85h-9l3.22-13h8.69l-.21.86h-7.75L311 82.87h7l-.2.84h-6.93L309.5 89zM323 76.89h5.14a6.36 6.36 0 0 1 3.39.84 4.3 4.3 0 0 1 1.9 2.27 5.83 5.83 0 0 1 .05 3.35 8.36 8.36 0 0 1-1.7 3.36 8.92 8.92 0 0 1-3 2.31 8.75 8.75 0 0 1-3.8.83h-5.15zM325.1 89a8 8 0 0 0 3.35-.71 7.47 7.47 0 0 0 2.61-2 7.22 7.22 0 0 0 1.47-2.94 5.18 5.18 0 0 0 0-2.93 3.55 3.55 0 0 0-1.62-2 5.84 5.84 0 0 0-3-.71h-4.12L321 89zm10.41.5a3.73 3.73 0 0 1-1.7-1.28l.6-.7A3.66 3.66 0 0 0 336 88.7a5.83 5.83 0 0 0 2.33.45 5.55 5.55 0 0 0 3-.7 3 3 0 0 0 1.4-1.84 1.66 1.66 0 0 0-.16-1.4 2.39 2.39 0 0 0-1-.79 13.81 13.81 0 0 0-1.87-.58 15.57 15.57 0 0 1-2.12-.69 2.5 2.5 0 0 1-1.21-1 2.39 2.39 0 0 1-.15-1.87 4.12 4.12 0 0 1 .93-1.73 4.82 4.82 0 0 1 1.85-1.26 7.1 7.1 0 0 1 2.68-.46 6.5 6.5 0 0 1 2 .32 4.62 4.62 0 0 1 1.59.85l-.54.76a4.59 4.59 0 0 0-1.51-.82 6 6 0 0 0-1.78-.27 5.27 5.27 0 0 0-2.91.72 3.08 3.08 0 0 0-1.39 1.88 1.61 1.61 0 0 0 .15 1.39 2.38 2.38 0 0 0 1.05.8 16.07 16.07 0 0 0 1.88.59 16.34 16.34 0 0 1 2.11.69 2.67 2.67 0 0 1 1.21 1 2.3 2.3 0 0 1 .15 1.83 4 4 0 0 1-.94 1.73 4.9 4.9 0 0 1-1.87 1.24 7.38 7.38 0 0 1-2.72.47 6.8 6.8 0 0 1-2.65-.51z"/></g></g></svg>