<svg xmlns="http://www.w3.org/2000/svg" width="36" height="29.25"><g data-name="Layer 2"><path d="M32.34 8.23A20.85 20.85 0 0 1 29.88 18a20 20 0 0 1-7.1 8 20.31 20.31 0 0 1-11.46 3.3A20.51 20.51 0 0 1 0 26c.52 0 1.1.07 1.76.07A14.64 14.64 0 0 0 11 22.85a6.91 6.91 0 0 1-4.33-1.44 7.36 7.36 0 0 1-2.56-3.62 12.5 12.5 0 0 0 1.33.07 9.35 9.35 0 0 0 2-.21 7.5 7.5 0 0 1-4.22-2.6 7.11 7.11 0 0 1-1.68-4.64v-.14a7 7 0 0 0 3.3 1 8.19 8.19 0 0 1-2.45-2.69A7.08 7.08 0 0 1 1.48 5a7.08 7.08 0 0 1 1-3.69 20.46 20.46 0 0 0 6.77 5.51 20.37 20.37 0 0 0 8.47 2.25 10.61 10.61 0 0 1-.14-1.69 7.39 7.39 0 0 1 1-3.69A7.31 7.31 0 0 1 21.23 1a7.22 7.22 0 0 1 3.66-1 7.09 7.09 0 0 1 3 .63 8.37 8.37 0 0 1 2.41 1.69A15 15 0 0 0 35 .56a7.31 7.31 0 0 1-3.24 4.08A16.31 16.31 0 0 0 36 3.45a16.09 16.09 0 0 1-3.73 3.86 4 4 0 0 1 .07.92z" fill="#6b6b6b" data-name="Layer 1"/></g></svg>