<svg xmlns="http://www.w3.org/2000/svg" width="27.01" height="35.45"><g data-name="Layer 2"><path d="M9.42 22.57Q1.91 25 1.48 25a1.3 1.3 0 0 1-1.06-.78 3.55 3.55 0 0 1-.35-1.47 19.44 19.44 0 0 1 0-3.24 16.77 16.77 0 0 1 .42-2.11 1.29 1.29 0 0 1 1.34-1q.29 0 6 2.32l1.9.77a1.27 1.27 0 0 1 .85.88 1.79 1.79 0 0 1 0 1.27 1.37 1.37 0 0 1-.88.81zm3.83-6.09a1.14 1.14 0 0 1-1.33.43 3 3 0 0 1-1.51-1.45L2.88 3.65a1.26 1.26 0 0 1 .42-1.19C3.82 1.89 5.17 1.31 7.35.7a10.75 10.75 0 0 1 4.46-.63 1.31 1.31 0 0 1 1 .84q.06.42.42 6.33l.49 7.24a2.86 2.86 0 0 1-.47 2zm.32 9.67c0 5.44 0 8.25-.07 8.44a1.52 1.52 0 0 1-1.05.84 8.83 8.83 0 0 1-3.59-.77 10.37 10.37 0 0 1-2.46-1.2c-.89-.56-1.22-1.17-1-1.82q.15-.36 3.87-4.71l1.55-1.83a1.29 1.29 0 0 1 1.09-.57 1.8 1.8 0 0 1 1.19.46 1.21 1.21 0 0 1 .46 1.09zm6.75-6.82l-2.39.67.07-.07a1.45 1.45 0 0 1-1.2-.24 1.69 1.69 0 0 1-.7-1 1.44 1.44 0 0 1 .28-1.2l1.41-1.9a52.41 52.41 0 0 1 3.66-4.85 1.24 1.24 0 0 1 1.33-.07 7.67 7.67 0 0 1 2.39 2.6 8.82 8.82 0 0 1 1.62 3.31v.14a1.26 1.26 0 0 1-.49 1.12 53.8 53.8 0 0 1-5.98 1.49zm4.85 10.83a8.6 8.6 0 0 1-2.67 2.53 1.2 1.2 0 0 1-1.27-.14A36.73 36.73 0 0 1 18.91 29l-2.25-3.65a1.27 1.27 0 0 1-.14-1.16 1.76 1.76 0 0 1 .78-1 1.32 1.32 0 0 1 1.19-.19l3.94 1.33a31.87 31.87 0 0 1 4.15 1.48A1.31 1.31 0 0 1 27 27a7.84 7.84 0 0 1-1.83 3.16z" fill="#6b6b6b" data-name="Layer 1"/></g></svg>