<svg xmlns="http://www.w3.org/2000/svg" width="30.84" height="36.75" viewBox="0 0 30.84 36.75"><title>apple</title><g id="Layer_2" data-name="Layer 2"><g id="Layer_1-2" data-name="Layer 1"><path d="M25.84,19.44a6.45,6.45,0,0,0,.57,2.95A8.3,8.3,0,0,0,30.84,27a21.14,21.14,0,0,1-3,6c-1.81,2.46-3.58,3.72-5.33,3.77a8.34,8.34,0,0,1-3-.74,9.91,9.91,0,0,0-3.36-.74,10.46,10.46,0,0,0-3.53.82,8.12,8.12,0,0,1-2.62.66c-1.21,0-2.49-.6-3.86-2A20.26,20.26,0,0,1,3,30.52a28,28,0,0,1-1.89-4A20.92,20.92,0,0,1,0,19.85a12.46,12.46,0,0,1,1.39-6.07,9.13,9.13,0,0,1,3.49-3.61A9.77,9.77,0,0,1,9.43,8.86a13.38,13.38,0,0,1,4,1,8.72,8.72,0,0,0,2.22.66,8,8,0,0,0,2-.57c1-.39,1.86-.66,2.46-.82A8.46,8.46,0,0,1,23,8.78a8.93,8.93,0,0,1,7,3.69A7.52,7.52,0,0,0,25.84,19.44ZM21.16,5.91V6c-1.75,2-3.63,2.95-5.66,2.79a7.45,7.45,0,0,1,2.05-5.91A8.75,8.75,0,0,1,20.1.9a7.43,7.43,0,0,1,3-.9A7.91,7.91,0,0,1,21.16,5.91Z" fill="#fff"/></g></g></svg>