<svg xmlns="http://www.w3.org/2000/svg" width="31.5" height="31.5" viewBox="0 0 31.5 31.5"><title>facebook</title><g id="Layer_2" data-name="Layer 2"><g id="Layer_1-2" data-name="Layer 1"><path d="M31.5,28.13a3.35,3.35,0,0,1-3.37,3.37h-6V19.05h4.22L27,14.27H22.15v-3a2.83,2.83,0,0,1,.42-1.69,2.46,2.46,0,0,1,1.9-.63H27V4.71a26.57,26.57,0,0,0-3.66-.21,6,6,0,0,0-4.46,1.65,6.24,6.24,0,0,0-1.65,4.61v3.51H12.94v4.78h4.29V31.5H3.38a3.3,3.3,0,0,1-2.4-1,3.29,3.29,0,0,1-1-2.39V3.38A3.35,3.35,0,0,1,3.38,0H28.13a3.29,3.29,0,0,1,2.39,1,3.3,3.3,0,0,1,1,2.4Z" fill="#6b6b6b"/></g></g></svg>