<svg xmlns="http://www.w3.org/2000/svg" width="19.28" height="16.84" viewBox="0 0 19.28 16.84"><title>menu</title><g id="Layer_2" data-name="Layer 2"><g id="Layer_1-2" data-name="Layer 1"><path d="M17.68,3.18H1.59A1.59,1.59,0,0,1,1.59,0H17.68a1.59,1.59,0,1,1,0,3.18Zm1.39,6.66a1.58,1.58,0,0,0-.61-2.16l-1.32-.74a3.59,3.59,0,0,0-3.51,0l-.34.19a.43.43,0,0,1-.41,0l-.34-.19A3.59,3.59,0,0,0,9,6.94l-.34.19a.43.43,0,0,1-.41,0l-.34-.19a3.59,3.59,0,0,0-3.51,0l-.34.19a.41.41,0,0,1-.4,0L2.37,6.39A1.59,1.59,0,0,0,.81,9.17l1.32.73a3.61,3.61,0,0,0,3.52,0L6,9.71a.41.41,0,0,1,.4,0l.34.19a3.59,3.59,0,0,0,3.51,0l.34-.19a.43.43,0,0,1,.41,0l.34.19a3.59,3.59,0,0,0,3.51,0l.34-.19a.43.43,0,0,1,.41,0l1.32.74a1.54,1.54,0,0,0,.77.21A1.59,1.59,0,0,0,19.07,9.84Zm.21,5.41a1.6,1.6,0,0,0-1.6-1.59H1.59a1.59,1.59,0,0,0,0,3.18H17.68A1.6,1.6,0,0,0,19.28,15.25Z"/></g></g></svg>